name new_emg_signals
nRows=37
nColumns=7
 
endheader
time	LGLTMED	LRF	LADDLONG	LBF	LTA	LGM
3.44999999999993	0.3730802250594216	0.3281046526660994	0.7538305946108376	0.4204526878106038	0.7441675966849164	0.7545460635642729
3.4599999999999245	0.3705033812245105	0.3268805720850311	0.7561332666624591	0.4205607559349122	0.7355180819297441	0.7474826481736055
3.469999999999919	0.3679287450986047	0.3256823735810088	0.7585299880753015	0.4208471473381626	0.7268576788329552	0.7404049749782429
3.479999999999924	0.3653609929098214	0.3245112022077687	0.7610206725293349	0.4213157243830741	0.7181957579673454	0.7333206654603462
3.4899999999999256	0.362804886464745	0.3233681347689612	0.7636050761262944	0.4219700561109068	0.7095415819641006	0.7262372499404981
3.4999999999999236	0.3602652629119726	0.3222541777454364	0.7662827939456934	0.422813407293189	0.700904289531427	0.7191621543941896
3.5099999999999216	0.357747024239859	0.3211702653702	0.7690532568693806	0.4238487280633493	0.6922928797474224	0.7121026874955672
3.519999999999923	0.3552551265388863	0.3201172578577806	0.7719157286861162	0.4250786441487061	0.683716196668308	0.7050660279254174
3.5299999999999248	0.3527945690593691	0.3190959397944602	0.7748693034894879	0.4265054477223783	0.6751829142915864	0.6980592119784954
3.539999999999919	0.3503703830945692	0.3181070186956301	0.7779129033837284	0.4281310888930298	0.6667015219116866	0.6910891215029318
3.5499999999999208	0.3479876207184049	0.317151123736293	0.7810452765120376	0.4299571678492165	0.6582803099036878	0.6841624722035418
3.5599999999999223	0.3456513434065332	0.3162288046604438	0.7842649954219707	0.4319849276734701	0.6499273559688437	0.6772858023379232
3.569999999999924	0.3433666105688064	0.31534053087465	0.7875704557816733	0.4342152478401568	0.6416505118737956	0.6704654618333179
3.579999999999922	0.3411384680210944	0.314486690730775	0.7909598754605448	0.4366486384101884	0.6334573907134935	0.6637076018504176
3.58999999999992	0.3389719364241175	0.313667591002308	0.7944312939870142	0.4392852349352522	0.6253553547259688	0.6570181648185386
3.5999999999999215	0.3368719997164756	0.312883456558556	0.797982572395599	0.4421247940835938	0.6173515036852828	0.6504028749647747
3.6099999999999195	0.3348435935686973	0.312134430240524	0.8016113934733521	0.4451666899990268	0.6094526638972445	0.6438672293588477
3.619999999999921	0.3328915938842041	0.3114205729420175	0.8053152624144436	0.4484099114039149	0.601665377820869	0.6374164894933696
3.629999999999919	0.3310208053724657	0.3107418638989914	0.8090915078892666	0.4518530594559009	0.5939958943369973	0.6310556734189537
3.6399999999999206	0.3292359502188646	0.3100982011896064	0.8129372835328774	0.4554943463671604	0.586450159683965	0.6247895484518016
3.649999999999922	0.3275416568751568	0.3094894024466534	0.8168495698551638	0.4593315947938027	0.5790338090786562	0.61862262447098
3.65999999999992	0.3259424489939643	0.3089152057830708	0.8208251765732485	0.4633622380021573	0.5717521590396764	0.6125591478205947
3.6699999999999218	0.3244427345302005	0.3083752709302241	0.8248607453646908	0.4675833208174819	0.5646102004276817	0.6066030958310169
3.67999999999992	0.3230467950322522	0.307869180587636	0.8289527530393321	0.4719915013597031	0.557612592216122	0.6007581719717064
3.6899999999999213	0.3217587751450372	0.307396441982008	0.8330975151270058	0.4765830535693969	0.5507636560038006	0.5950278016462777
3.6999999999999194	0.3205826723465033	0.3069564886326631	0.8372911898789862	0.4813538705259826	0.54406737127878	0.5894151286386785
3.709999999999921	0.3195223269384819	0.3065486823199333	0.8415297826800271	0.4862994685585701	0.5375273714412916	0.5839230122174711
3.719999999999919	0.3185814123119889	0.3061723152521605	0.845809150867172	0.4914149921484747	0.5311469405914168	0.5785540249038548
3.7299999999999205	0.3177634255065563	0.3058266124260991	0.8501250089493716	0.4966952196208955	0.5249290110854572	0.5733104509069227
3.739999999999922	0.3170716780823781	0.3055107341746084	0.854472934219794	0.5021345696219036	0.5188761618631574	0.5681942852287148
3.74999999999992	0.3165092873238184	0.3052237788945669	0.858848372750655	0.5077271083755992	0.5129906175463697	0.5632072334394242
3.7599999999999216	0.3160791677922739	0.3049647859470847	0.8632466457577886	0.5134665577146416	0.5072742483082712	0.5583507121218425
3.7699999999999196	0.3157840232460229	0.3047327387212054	0.8676629563200873	0.5193463038759174	0.5017285705107704	0.5536258499823264
3.779999999999921	0.3156263389440911	0.3045265678513655	0.8720923964370438	0.5253594070511913	0.4963547481062169	0.5490334896244724
3.7899999999999157	0.3156083743503452	0.3043451545782566	0.8765299544051502	0.5314986116812026	0.4911535947979778	0.5445741899795629
3.7999999999999208	0.3157321562531379	0.3041873342420066	0.8809705224920311	0.5377563574798712	0.4861255769528871	0.540248229387413
3.8099999999999223	0.3159994723147944	0.3040518998960061	0.8854089048845256	0.5441247911741058	0.481270817256979	0.5360556093189612
